HIERARCHY
ROOT Hips
{
	OFFSET 0.00000 0.00000 0.00000
	CHANNELS 6 Xposition Yposition Zposition Zrotation Yrotation Xrotation 
	JOINT LHipJoint
	{
		OFFSET 0 0 0
		CHANNELS 3 Zrotation Yrotation Xrotation
		JOINT LeftUpLeg
		{
			OFFSET 1.46561 -1.72757 0.83774
			CHANNELS 3 Zrotation Yrotation Xrotation
			JOINT LeftLeg
			{
				OFFSET 2.48915 -6.83890 0.00000
				CHANNELS 3 Zrotation Yrotation Xrotation
				JOINT LeftFoot
				{
					OFFSET 2.60555 -7.15868 0.00000
					CHANNELS 3 Zrotation Yrotation Xrotation
					JOINT LeftToeBase
					{
						OFFSET 0.19248 -0.52884 2.26738
						CHANNELS 3 Zrotation Yrotation Xrotation
						End Site
						{
							OFFSET 0.00000 -0.00000 1.17015
						}
					}
				}
			}
		}
	}
	JOINT RHipJoint
	{
		OFFSET 0 0 0
		CHANNELS 3 Zrotation Yrotation Xrotation
		JOINT RightUpLeg
		{
			OFFSET -1.46918 -1.72757 0.83774
			CHANNELS 3 Zrotation Yrotation Xrotation
			JOINT RightLeg
			{
				OFFSET -2.49034 -6.84216 0.00000
				CHANNELS 3 Zrotation Yrotation Xrotation
				JOINT RightFoot
				{
					OFFSET -2.65971 -7.30750 0.00000
					CHANNELS 3 Zrotation Yrotation Xrotation
					JOINT RightToeBase
					{
						OFFSET -0.19227 -0.52827 2.30785
						CHANNELS 3 Zrotation Yrotation Xrotation
						End Site
						{
							OFFSET -0.00000 -0.00000 1.18972
						}
					}
				}
			}
		}
	}
	JOINT LowerBack
	{
		OFFSET 0 0 0
		CHANNELS 3 Zrotation Yrotation Xrotation
		JOINT Spine
		{
			OFFSET 0.02432 2.19909 -0.28000
			CHANNELS 3 Zrotation Yrotation Xrotation
			JOINT Spine1
			{
				OFFSET 0.03714 2.21816 -0.15261
				CHANNELS 3 Zrotation Yrotation Xrotation
				JOINT Neck
				{
					OFFSET 0 0 0
					CHANNELS 3 Zrotation Yrotation Xrotation
					JOINT Neck1
					{
						OFFSET -0.01896 1.56165 0.21681
						CHANNELS 3 Zrotation Yrotation Xrotation
						JOINT Head
						{
							OFFSET 0.02744 1.56009 0.06764
							CHANNELS 3 Zrotation Yrotation Xrotation
							End Site
							{
								OFFSET 0.01212 1.60574 0.00298
							}
						}
					}
				}
				JOINT LeftShoulder
				{
					OFFSET 0 0 0
					CHANNELS 3 Zrotation Yrotation Xrotation
					JOINT LeftArm
					{
						OFFSET 3.05595 1.48048 -0.60794
						CHANNELS 3 Zrotation Yrotation Xrotation
						JOINT LeftForeArm
						{
							OFFSET 5.20607 -0.00000 -0.00000
							CHANNELS 3 Zrotation Yrotation Xrotation
							JOINT LeftHand
							{
								OFFSET 3.39961 -0.00000 0.00000
								CHANNELS 3 Zrotation Yrotation Xrotation
								JOINT LeftFingerBase
								{
									OFFSET 0 0 0
									CHANNELS 3 Zrotation Yrotation Xrotation
									JOINT LeftHandIndex1
									{
										OFFSET 0.51969 -0.00000 0.00000
										CHANNELS 3 Zrotation Yrotation Xrotation
										End Site
										{
											OFFSET 0.41899 -0.00000 0.00000
										}
									}
								}
								JOINT LThumb
								{
									OFFSET 0 0 0
									CHANNELS 3 Zrotation Yrotation Xrotation
									End Site
									{
										OFFSET 0.42539 -0.00000 0.42539
									}
								}
							}
						}
					}
				}
				JOINT RightShoulder
				{
					OFFSET 0 0 0
					CHANNELS 3 Zrotation Yrotation Xrotation
					JOINT RightArm
					{
						OFFSET -2.99052 1.57608 -0.69102
						CHANNELS 3 Zrotation Yrotation Xrotation
						JOINT RightForeArm
						{
							OFFSET -5.32214 -0.00000 0.00000
							CHANNELS 3 Zrotation Yrotation Xrotation
							JOINT RightHand
							{
								OFFSET -3.51208 -0.00000 0.00000
								CHANNELS 3 Zrotation Yrotation Xrotation
								JOINT RightFingerBase
								{
									OFFSET 0 0 0
									CHANNELS 3 Zrotation Yrotation Xrotation
									JOINT RightHandIndex1
									{
										OFFSET -0.58668 -0.00000 0.00000
										CHANNELS 3 Zrotation Yrotation Xrotation
										End Site
										{
											OFFSET -0.47300 -0.00000 0.00000
										}
									}
								}
								JOINT RThumb
								{
									OFFSET 0 0 0
									CHANNELS 3 Zrotation Yrotation Xrotation
									End Site
									{
										OFFSET -0.48022 -0.00000 0.48022
									}
								}
							}
						}
					}
				}
			}
		}
	}
}
MOTION
Frames: 15
Frame Time: .0083333
0.3371 17.618 -13.7905 0 0 0 0 0 0 -21 0 0 0 0 0 0 0 0 0 0 0 0 0 0 21 0 0 0 0 0 0 0 0 0 0 0 0 0 0 0 0 0 0 0 0 0 0 -16 0 0 21 0 0 11 0 0 0 -8 0 0 0 0 0 0 0 0 0 0 0 0 0 0 0 0 0 0 0 0 8 0 0 0 0 0 0 0 0 0 0 0 0 0 0 0 0 0
0.3371 17.6180 -13.7905 -0.9427 0.2136 7.9321 0.0000 0.0000 0.0000 -17.9551 1.6057 -14.2055 0.8611 5.9172 16.5445 0.3689 0.2656 -11.5733 0.0139 0.7600 2.0887 0.0000 0.0000 0.0000 19.0215 2.5645 -14.8411 -1.2800 -7.1699 20.2196 -0.5409 2.6269 -13.2413 -0.3657 -3.8847 10.7525 0.0669 -0.5112 -1.3973 1.6519 -0.7477 3.4090 1.6284 -0.4007 4.3170 -1.4046 0.3532 -10.1676 -0.0358 0.8266 30.3357 0.3358 0.2078 11.5357 -0.0000 0.0000 0.0000 -87.9746 -9.1395 28.8900 10.2784 -17.1738 -1.5561 -0.0000 0.0000 -4.6445 25.5268 -4.5687 -2.1784 -7.1250 0.0000 -0.0000 -0.8473 24.9193 0.4115 -0.0000 0.0000 0.0000 86.3508 6.9437 5.5620 -12.8281 21.0348 -2.3912 0.0000 0.0000 33.1410 -23.3969 -25.7983 10.6641 7.1250 -0.0000 -0.0000 7.1688 -57.6114 -2.2212
0.3373 17.6171 -13.7876 -0.9488 0.2048 7.8851 0.0000 0.0000 0.0000 -17.9479 1.6446 -14.1547 0.8618 5.9197 16.5516 0.3710 0.2603 -11.6035 0.0136 0.7532 2.0700 0.0000 0.0000 0.0000 19.0289 2.5552 -14.7897 -1.2814 -7.1736 20.2308 -0.5419 2.6310 -13.2528 -0.3678 -3.8955 10.7829 0.0632 -0.5011 -1.4108 1.6487 -0.7338 3.3896 1.6278 -0.3937 4.3041 -1.3953 0.3637 -10.2551 -0.0260 0.8381 30.2761 0.3394 0.2156 11.5300 -0.0000 0.0000 0.0000 -88.0623 -9.1382 29.1100 10.2766 -17.1711 -1.5556 -0.0000 0.0000 -4.7142 25.7136 -4.6711 -2.2458 -7.1250 0.0000 -0.0000 -0.7095 24.7978 0.3465 -0.0000 0.0000 0.0000 86.3364 6.9453 5.4908 -12.8046 21.0002 -2.3828 0.0000 0.0000 33.1912 -23.3898 -25.7768 10.6524 7.1250 -0.0000 -0.0000 7.1670 -57.5876 -2.2165
0.3376 17.6158 -13.7841 -0.9592 0.2009 7.8372 0.0000 0.0000 0.0000 -17.9333 1.6452 -14.0934 0.8645 5.9288 16.5781 0.3742 0.2869 -11.6629 0.0144 0.7739 2.1268 0.0000 0.0000 0.0000 19.0444 2.5303 -14.7327 -1.2825 -7.1764 20.2391 -0.5431 2.6263 -13.2690 -0.3594 -3.8512 10.6585 0.0587 -0.4957 -1.4414 1.6525 -0.7266 3.3721 1.6344 -0.3903 4.3031 -1.3839 0.3531 -10.3769 -0.0331 0.8247 30.2471 0.3334 0.2100 11.5437 0.0000 -0.0000 0.0000 -88.1645 -9.1264 28.9323 10.3192 -17.2373 -1.5682 -0.0000 0.0000 -3.9634 25.0468 -4.1034 -1.9152 -7.1250 0.0000 -0.0000 -1.2002 25.4520 0.5680 0.0000 -0.0000 0.0000 86.3187 6.9491 5.4258 -12.7879 20.9756 -2.3768 0.0000 0.0000 33.2464 -23.4160 -25.8161 10.6803 7.1250 -0.0000 -0.0000 7.1559 -57.6340 -2.2210
0.3384 17.6145 -13.7812 -0.9822 0.1937 7.7935 0.0000 0.0000 0.0000 -17.9108 1.6818 -14.0527 0.8668 5.9364 16.6000 0.3767 0.2792 -11.6992 0.0136 0.7536 2.0710 0.0000 0.0000 0.0000 19.0678 2.5143 -14.6820 -1.2837 -7.1797 20.2488 -0.5443 2.6447 -13.2819 -0.3630 -3.8703 10.7120 0.0702 -0.4897 -1.4593 1.6566 -0.7192 3.3565 1.6325 -0.3862 4.2968 -1.4181 0.3458 -10.4910 0.0111 0.8109 30.2168 0.3543 0.2054 11.5548 -0.0000 0.0000 0.0000 -88.2299 -9.0714 29.3747 10.3467 -17.2800 -1.5764 -0.0000 0.0000 -4.7173 25.5569 -4.5773 -2.1854 -7.1250 0.0000 -0.0000 -0.8249 24.9085 0.4008 -0.0000 0.0000 0.0000 86.3099 6.9669 5.3806 -12.7625 20.9383 -2.3678 0.0000 0.0000 33.3016 -23.4236 -25.8261 10.6878 7.1250 -0.0000 -0.0000 7.1521 -57.6461 -2.2219
0.3389 17.6133 -13.7781 -0.9966 0.1829 7.7467 0.0000 0.0000 0.0000 -17.8952 1.7052 -14.0039 0.8695 5.9455 16.6263 0.3793 0.2875 -11.7411 0.0134 0.7476 2.0547 0.0000 0.0000 0.0000 19.0841 2.4979 -14.6277 -1.2850 -7.1832 20.2594 -0.5456 2.6553 -13.2965 -0.3620 -3.8649 10.6969 0.0711 -0.4829 -1.4839 1.6584 -0.7103 3.3405 1.6341 -0.3817 4.2938 -1.4302 0.3421 -10.5987 0.0345 0.8034 30.1886 0.3644 0.2035 11.5657 -0.0000 -0.0000 0.0000 -88.3015 -9.0370 29.5807 10.3733 -17.3214 -1.5843 -0.0000 0.0000 -4.8607 25.5816 -4.6198 -2.2081 -7.1250 0.0000 -0.0000 -0.8073 24.8603 0.3931 -0.0000 -0.0000 0.0000 86.3006 6.9772 5.3305 -12.7409 20.9065 -2.3600 0.0000 0.0000 33.3624 -23.4429 -25.8350 10.7008 7.1250 -0.0000 -0.0000 7.1349 -57.6596 -2.2189
0.3395 17.6119 -13.7750 -1.0086 0.1694 7.6995 0.0000 0.0000 0.0000 -17.8826 1.7263 -13.9530 0.8720 5.9539 16.6507 0.3813 0.3010 -11.7777 0.0131 0.7404 2.0349 0.0000 0.0000 0.0000 19.0973 2.4804 -14.5738 -1.2865 -7.1872 20.2710 -0.5470 2.6681 -13.3118 -0.3606 -3.8575 10.6762 0.0696 -0.4760 -1.5118 1.6586 -0.7011 3.3260 1.6355 -0.3771 4.2944 -1.4345 0.3400 -10.7066 0.0529 0.7979 30.1667 0.3715 0.2028 11.5791 0.0000 -0.0000 0.0000 -88.3647 -9.0014 29.7906 10.4005 -17.3637 -1.5924 -0.0000 0.0000 -5.0145 25.5825 -4.6507 -2.2229 -7.1250 0.0000 -0.0000 -0.8073 24.8261 0.3938 0.0000 -0.0000 0.0000 86.2953 6.9901 5.2835 -12.7199 20.8755 -2.3525 0.0000 0.0000 33.4275 -23.4620 -25.8396 10.7121 7.1250 -0.0000 -0.0000 7.1163 -57.6686 -2.2146
0.3400 17.6105 -13.7719 -1.0194 0.1535 7.6518 0.0000 0.0000 0.0000 -17.8720 1.7470 -13.9003 0.8743 5.9613 16.6721 0.3828 0.3176 -11.8072 0.0129 0.7320 2.0118 0.0000 0.0000 0.0000 19.1089 2.4620 -14.5213 -1.2881 -7.1917 20.2845 -0.5484 2.6843 -13.3270 -0.3594 -3.8511 10.6582 0.0674 -0.4685 -1.5396 1.6572 -0.6910 3.3112 1.6357 -0.3721 4.2944 -1.4355 0.3388 -10.8142 0.0700 0.7933 30.1543 0.3778 0.2026 11.5961 0.0000 0.0000 0.0000 -88.4197 -8.9656 30.0086 10.4246 -17.4011 -1.5996 -0.0000 0.0000 -5.1770 25.5845 -4.6783 -2.2363 -7.1250 0.0000 -0.0000 -0.8064 24.7955 0.3939 0.0000 0.0000 0.0000 86.2950 7.0017 5.2367 -12.7006 20.8470 -2.3457 0.0000 0.0000 33.4926 -23.4773 -25.8382 10.7192 7.1250 -0.0000 -0.0000 7.0989 -57.6705 -2.2095
0.3407 17.6090 -13.7689 -1.0287 0.1352 7.6041 0.0000 0.0000 0.0000 -17.8634 1.7639 -13.8463 0.8764 5.9685 16.6931 0.3840 0.3411 -11.8339 0.0126 0.7249 1.9922 0.0000 0.0000 0.0000 19.1186 2.4405 -14.4703 -1.2899 -7.1963 20.2981 -0.5498 2.7053 -13.3419 -0.3579 -3.8434 10.6364 0.0646 -0.4604 -1.5678 1.6542 -0.6800 3.2949 1.6345 -0.3666 4.2932 -1.4326 0.3387 -10.9207 0.0838 0.7905 30.1504 0.3825 0.2033 11.6163 0.0000 0.0000 0.0000 -88.4699 -8.9318 30.1916 10.4444 -17.4316 -1.6055 -0.0000 0.0000 -5.2563 25.5240 -4.6343 -2.2093 -7.1250 0.0000 -0.0000 -0.8507 24.8468 0.4146 0.0000 0.0000 0.0000 86.2988 7.0109 5.1886 -12.6830 20.8210 -2.3394 0.0000 0.0000 33.5558 -23.4879 -25.8293 10.7212 7.1250 -0.0000 -0.0000 7.0835 -57.6637 -2.2035
0.3415 17.6076 -13.7658 -1.0383 0.1162 7.5568 0.0000 0.0000 0.0000 -17.8552 1.7785 -13.7929 0.8787 5.9762 16.7152 0.3850 0.3671 -11.8600 0.0124 0.7197 1.9778 0.0000 0.0000 0.0000 19.1280 2.4157 -14.4201 -1.2913 -7.2002 20.3100 -0.5512 2.7302 -13.3553 -0.3563 -3.8349 10.6127 0.0636 -0.4525 -1.5958 1.6504 -0.6693 3.2785 1.6315 -0.3612 4.2917 -1.4301 0.3374 -11.0281 0.0960 0.7866 30.1527 0.3865 0.2031 11.6392 -0.0000 0.0000 0.0000 -88.5168 -8.9004 30.3543 10.4582 -17.4531 -1.6097 -0.0000 0.0000 -5.3037 25.4647 -4.5762 -2.1759 -7.1250 0.0000 -0.0000 -0.8941 24.9136 0.4343 -0.0000 0.0000 0.0000 86.3068 7.0197 5.1431 -12.6671 20.7976 -2.3338 0.0000 0.0000 33.6120 -23.4985 -25.8141 10.7207 7.1250 -0.0000 -0.0000 7.0653 -57.6503 -2.1955
0.3423 17.6062 -13.7628 -1.0504 0.0952 7.5106 0.0000 0.0000 0.0000 -17.8444 1.7904 -13.7406 0.8813 5.9846 16.7398 0.3862 0.3969 -11.8893 0.0123 0.7167 1.9695 0.0000 0.0000 0.0000 19.1398 2.3881 -14.3707 -1.2924 -7.2032 20.3187 -0.5524 2.7607 -13.3667 -0.3553 -3.8295 10.5975 0.0652 -0.4442 -1.6237 1.6476 -0.6582 3.2612 1.6282 -0.3554 4.2891 -1.4314 0.3345 -11.1357 0.1072 0.7816 30.1590 0.3906 0.2018 11.6638 0.0000 -0.0000 0.0000 -88.5641 -8.8699 30.4939 10.4659 -17.4650 -1.6120 -0.0000 0.0000 -5.3218 25.4165 -4.5041 -2.1371 -7.1250 0.0000 -0.0000 -0.9288 24.9953 0.4494 0.0000 -0.0000 0.0000 86.3157 7.0256 5.1026 -12.6546 20.7790 -2.3293 0.0000 0.0000 33.6565 -23.5054 -25.7921 10.7158 7.1250 -0.0000 -0.0000 7.0481 -57.6291 -2.1865
0.3433 17.6049 -13.7598 -1.0670 0.0729 7.4654 0.0000 0.0000 0.0000 -17.8292 1.8033 -13.6916 0.8842 5.9942 16.7676 0.3876 0.4271 -11.9224 0.0122 0.7142 1.9628 0.0000 0.0000 0.0000 19.1563 2.3590 -14.3211 -1.2930 -7.2046 20.3231 -0.5535 2.7949 -13.3755 -0.3547 -3.8262 10.5881 0.0711 -0.4362 -1.6521 1.6464 -0.6478 3.2440 1.6239 -0.3500 4.2870 -1.4366 0.3297 -11.2447 0.1165 0.7753 30.1701 0.3946 0.1993 11.6905 -0.0000 0.0000 0.0000 -88.6103 -8.8408 30.6113 10.4664 -17.4659 -1.6121 -0.0000 0.0000 -5.3219 25.3816 -4.4330 -2.1002 -7.1250 0.0000 -0.0000 -0.9536 25.0753 0.4597 -0.0000 0.0000 0.0000 86.3259 7.0295 5.0745 -12.6451 20.7650 -2.3260 0.0000 0.0000 33.6872 -23.5145 -25.7732 10.7133 7.1250 -0.0000 -0.0000 7.0299 -57.6116 -2.1779
0.3444 17.6036 -13.7567 -1.0878 0.0487 7.4210 0.0000 0.0000 0.0000 -17.8095 1.8164 -13.6447 0.8874 6.0049 16.7986 0.3892 0.4586 -11.9589 0.0122 0.7117 1.9560 0.0000 0.0000 0.0000 19.1769 2.3315 -14.2696 -1.2930 -7.2046 20.3230 -0.5544 2.8285 -13.3826 -0.3537 -3.8209 10.5734 0.0792 -0.4292 -1.6812 1.6478 -0.6388 3.2272 1.6212 -0.3452 4.2857 -1.4403 0.3270 -11.3539 0.1211 0.7733 30.1853 0.3972 0.1983 11.7190 0.0000 0.0000 0.0000 -88.6582 -8.8109 30.7024 10.4612 -17.4577 -1.6105 -0.0000 0.0000 -5.3059 25.3652 -4.3726 -2.0701 -7.1250 0.0000 -0.0000 -0.9647 25.1426 0.4635 0.0000 0.0000 0.0000 86.3353 7.0295 5.0653 -12.6415 20.7596 -2.3247 0.0000 0.0000 33.7019 -23.5271 -25.7542 10.7124 7.1250 -0.0000 -0.0000 7.0078 -57.5946 -2.1681
0.3455 17.6023 -13.7536 -1.1128 0.0225 7.3763 0.0000 0.0000 0.0000 -17.7850 1.8322 -13.5991 0.8909 6.0163 16.8318 0.3909 0.4904 -11.9984 0.0120 0.7069 1.9426 0.0000 0.0000 0.0000 19.2022 2.3073 -14.2144 -1.2924 -7.2032 20.3189 -0.5552 2.8604 -13.3873 -0.3526 -3.8153 10.5576 0.0893 -0.4230 -1.7106 1.6518 -0.6312 3.2110 1.6199 -0.3411 4.2852 -1.4424 0.3271 -11.4660 0.1212 0.7763 30.2071 0.3985 0.1990 11.7506 -0.0000 0.0000 0.0000 -88.7074 -8.7804 30.7640 10.4502 -17.4407 -1.6073 -0.0000 0.0000 -5.2784 25.3682 -4.3463 -2.0580 -7.1250 0.0000 -0.0000 -0.9621 25.1716 0.4616 -0.0000 0.0000 0.0000 86.3448 7.0281 5.0704 -12.6415 20.7597 -2.3247 0.0000 0.0000 33.7001 -23.5391 -25.7439 10.7144 7.1250 -0.0000 -0.0000 6.9902 -57.5866 -2.1613
0.3466 17.6009 -13.7503 -1.1397 -0.0050 7.3316 0.0000 0.0000 0.0000 -17.7586 1.8502 -13.5542 0.8945 6.0281 16.8659 0.3928 0.5212 -12.0390 0.0118 0.7023 1.9299 0.0000 0.0000 0.0000 19.2294 2.2880 -14.1555 -1.2915 -7.2008 20.3115 -0.5558 2.8869 -13.3916 -0.3513 -3.8082 10.5377 0.1000 -0.4179 -1.7416 1.6565 -0.6251 3.1962 1.6189 -0.3378 4.2872 -1.4365 0.3323 -11.5762 0.1147 0.7867 30.2302 0.3969 0.2032 11.7824 0.0000 -0.0000 0.0000 -88.7551 -8.7492 30.7961 10.4356 -17.4180 -1.6029 -0.0000 0.0000 -5.2366 25.3842 -4.3470 -2.0598 -7.1250 0.0000 -0.0000 -0.9501 25.1702 0.4558 0.0000 -0.0000 0.0000 86.3568 7.0253 5.0894 -12.6469 20.7677 -2.3266 0.0000 0.0000 33.6850 -23.5430 -25.7415 10.7155 7.1250 -0.0000 -0.0000 6.9850 -57.5850 -2.1594
